<?xml version="1.0" encoding="UTF-8"?>
<svg id="Capa_1" xmlns="http://www.w3.org/2000/svg" version="1.1" viewBox="0 0 1920 1080">
  <!-- Generator: Adobe Illustrator 29.3.1, SVG Export Plug-In . SVG Version: 2.1.0 Build 151)  -->
  <defs>
    <style>
      .st0 {
        fill: #d8cdc1;
      }

      .st1 {
        fill: #cb9804;
      }

      .st2 {
        fill: #691b32;
      }
    </style>
  </defs>
  <circle class="st2" cx="977.01" cy="512" r="388"/>
  <g>
    <path class="st1" d="M1226.12,564.6c5.22,67.16-76.21,145.14-121.41,161.91-173.4,64.32-363.01-39.61-374.18-198.79-5.76-82-1.01-164.52-1.01-248.54,6.62-.44,11.05-.98,15.48-.98,88.55-.05,177.12.25,265.65.25,126.14,0,197.64,98.22,197.64,98.22-57.11,31.86-60.88,32.74-108.22,57.48-44.11-49.12-108.68-55.33-159.91-13.73-45.21,36.71-31.14,127.75,13.4,165.08,103.69,60.54,147.11-23.82,147.11-23.82,26.62,2.11,125.46,2.94,125.46,2.94"/>
    <g>
      <path class="st0" d="M1009.77,604.23c-52.97-.48-64.86-10.44-112.3-57.42l-1.85-1.84c-16.39-16.31-54.76-54.5-90.84-39.18l-10.72,4.55,6.78-9.52c6.75-9.48,26.72-31.45,66.35-30.84h.14c29.34,1.73,47.35,23.74,64.76,45.03,19.36,23.67,39.38,48.14,75.58,46.18,43.69-2.37,63.41-36.84,63.24-67.86-.14-26.65-15.55-54.21-49.73-55.7-24.09-1.66-38.55,14.6-43.62,29.02-4.76,13.54-3.83,32.25,12.76,44.63l8.88-.48c-10.62-8.15-16.64-21.63-14.71-35.08,2.41-16.79,16.27-27.28,37.1-28.06h.2c26.09.66,38.25,23.84,38.5,45.08.32,27.52-17.84,56.3-53.19,58.04l-3.26.1v-.05c-19.77.27-37.46-6.91-50.09-20.39-13.38-14.27-19.74-34.33-17.48-55.03l.03-.19c4.33-25.97,15.97-46.64,33.65-59.78,15.71-11.67,35.79-16.98,56.56-14.94,40.4,3.96,80.52,35.29,83.34,88.05.16,2.94.2,5.95.12,9.02.63,29.74-9.78,57.11-29.31,77.07-18.64,19.05-44.47,29.83-70.88,29.59Z"/>
      <path class="st2" d="M1003.44,611.31c-50.61.69-62.85-11.57-111.04-59.3l-1.86-1.84c-15.36-15.29-51.35-51.06-82.94-37.65l-34.4,14.61,21.77-30.57c7.41-10.41,29.27-34.55,72.35-33.88,28.66,1.68,30.03.03,45.98,18.96-2.06-8.73,3.88-26.6,3.88-26.6,20.4-65.6,87.5-64.03,110.04-61.82,41.06,4.03,86.7,35.45,89.87,94.93.17,3.13.21,6.34.13,9.61.68,31.38-7.09,57.86-28.02,79.24-16.78,17.15-35.13,33.63-85.75,34.32ZM1009.84,596.93c24.45.23,48.39-9.77,65.66-27.42,18.15-18.54,27.82-44.04,27.23-71.79.08-3.22.04-6.04-.11-8.78-2.72-50.86-41.72-77.73-76.81-81.18-18.98-1.85-37.29,2.96-51.56,13.56-16.13,11.99-26.78,31.05-30.8,55.11-2,18.35,3.67,36.29,15.57,48.99,11.17,11.91,27.06,18.34,44.73,18.1l3.2-.04c30.53-1.58,46.39-26.64,46.11-50.65-.16-13.77-6.96-37.25-31.44-37.87-17.02.66-28.06,8.59-29.95,21.8-1.49,10.44,3.19,21.52,11.94,28.23l15.67,12.04-31.16,1.68-2.09-1.56c-19.78-14.77-20.86-37.03-15.28-52.94,5.91-16.84,22.77-35.82,50.94-33.88,38.74,1.68,56.32,32.83,56.48,62.95.19,34.37-21.68,72.59-70.09,75.19-39.86,2.17-62.01-24.92-81.56-48.82-17.19-21.01-33.41-40.84-59.59-42.38-25.37-.38-41.85,9.32-51.49,18.08l.48-.06c35.65-4.43,69.38,29.13,84.8,44.47l1.85,1.83c46.61,46.16,56.99,54.87,107.29,55.32h0Z"/>
    </g>
  </g>
</svg>